<?xml version="1.0" standalone="no"?>
<!DOCTYPE svg PUBLIC "-//W3C//DTD SVG 20010904//EN"
 "http://www.w3.org/TR/2001/REC-SVG-20010904/DTD/svg10.dtd">
<svg version="1.0" xmlns="http://www.w3.org/2000/svg"
 width="540.000000pt" height="540.000000pt" viewBox="0 0 540.000000 540.000000"
 preserveAspectRatio="xMidYMid meet">
<metadata>
Created by potrace 1.16, written by Peter Selinger 2001-2019
</metadata>
<g transform="translate(0.000000,540.000000) scale(0.100000,-0.100000)"
fill="#000000" stroke="none">
<path d="M2782 5090 c-89 -24 -133 -43 -198 -91 -109 -80 -161 -184 -152 -308
8 -107 42 -149 213 -265 151 -103 280 -237 340 -355 l17 -34 -24 7 c-115 32
-455 47 -613 26 -765 -99 -1391 -618 -1612 -1337 l-28 -93 -63 0 c-85 0 -155
-34 -221 -105 -59 -65 -83 -129 -82 -221 1 -151 118 -287 268 -310 38 -6 43
-10 47 -38 39 -249 62 -345 120 -496 174 -451 499 -807 935 -1027 301 -152
578 -211 928 -200 418 13 789 147 1113 400 395 309 663 776 724 1261 l11 88
66 17 c161 41 256 168 247 331 -10 169 -143 300 -305 300 l-62 0 -15 58 c-9
31 -33 100 -53 152 -211 552 -674 982 -1240 1151 -105 31 -113 35 -130 68 -19
37 -102 158 -138 200 -28 32 -161 141 -215 175 -160 101 -205 161 -205 271 0
130 81 244 220 310 93 44 165 59 266 53 94 -5 144 -25 197 -79 44 -45 57 -90
57 -199 -1 -83 -4 -103 -29 -157 -15 -33 -41 -74 -58 -90 -25 -24 -37 -28 -86
-28 -46 0 -73 8 -145 43 -99 47 -97 46 -97 32 0 -6 43 -32 95 -57 146 -71 223
-60 286 39 57 88 76 237 44 344 -44 148 -220 216 -423 164z m33 -1044 c144
-19 211 -34 213 -49 0 -7 12 -44 26 -84 103 -294 15 -542 -235 -664 -118 -58
-179 -72 -309 -73 -100 -1 -122 2 -165 22 -110 51 -151 126 -143 266 5 92 28
147 78 189 61 52 134 56 313 21 71 -14 100 -14 85 1 -3 3 -47 15 -99 26 -124
27 -239 23 -293 -10 -115 -71 -151 -287 -69 -416 31 -49 100 -99 158 -114 73
-19 204 -15 301 9 282 71 444 256 444 510 0 73 -22 188 -49 259 -11 30 -18 57
-15 60 7 7 195 -56 297 -100 452 -195 827 -587 1005 -1049 327 -845 19 -1795
-741 -2287 -287 -185 -601 -284 -954 -300 -877 -37 -1677 549 -1906 1398 -40
148 -57 262 -64 431 -13 327 53 628 202 923 266 527 758 900 1337 1011 179 35
406 42 583 20z m-2095 -1434 c0 -4 -4 -23 -10 -42 -21 -74 -40 -257 -41 -401
l-1 -151 -26 7 c-84 20 -105 29 -150 65 -74 58 -107 131 -107 235 0 64 5 89
24 125 41 79 108 135 191 161 33 10 120 11 120 1z m3908 -21 c64 -33 109 -77
139 -139 36 -74 39 -182 7 -252 -39 -84 -132 -154 -230 -175 l-31 -6 -6 193
c-4 128 -13 229 -27 298 -11 58 -20 107 -20 109 0 12 132 -10 168 -28z"/>
<path d="M1581 2674 c-36 -7 -89 -21 -117 -32 -92 -37 -184 -102 -145 -102 6
0 31 14 56 31 26 18 79 43 118 58 62 22 88 26 192 26 91 0 133 -5 175 -19 79
-26 156 -71 223 -128 65 -56 90 -57 36 -2 -131 136 -340 202 -538 168z"/>
<path d="M3333 2665 c-89 -25 -175 -70 -246 -130 -50 -42 -66 -60 -58 -68 8
-8 24 1 59 35 61 59 118 94 206 126 61 23 88 26 191 27 136 0 207 -18 310 -81
32 -19 62 -31 67 -26 10 10 -81 66 -164 100 -54 22 -81 26 -188 29 -87 2 -141
-2 -177 -12z"/>
<path d="M2545 1491 c-108 -27 -165 -89 -200 -217 -5 -15 -81 -1 -142 26 -54
24 -53 24 -53 6 0 -15 94 -52 158 -62 34 -5 42 -11 42 -28 1 -58 70 -157 129
-183 51 -23 60 -25 119 -25 72 1 150 39 187 92 28 40 54 103 55 131 0 12 13
18 44 22 58 8 160 47 149 57 -4 5 -39 -2 -78 -15 -100 -35 -109 -33 -124 17
-38 125 -170 208 -286 179z m140 -40 c44 -19 100 -78 117 -120 17 -45 12 -134
-11 -178 -53 -105 -182 -152 -286 -104 -134 61 -174 217 -86 338 56 77 174
106 266 64z"/>
</g>
</svg>
